<svg width="128" height="128" viewBox="0 0 128 128" fill="none" xmlns="http://www.w3.org/2000/svg">
<g clip-path="url(#clip0_12_32)">
<g clip-path="url(#clip1_12_32)">
<path d="M128 128L128 0L0 -5.59506e-06L-5.59506e-06 128L128 128Z" fill="#B26AFB"/>
<path d="M128 128L128 0L0 -5.59506e-06L-5.59506e-06 128L128 128Z" fill="url(#paint0_radial_12_32)"/>
<path d="M128 128L128 0L0 -5.59506e-06L-5.59506e-06 128L128 128Z" fill="url(#paint1_radial_12_32)"/>
<path d="M128 128L128 0L0 -5.59506e-06L-5.59506e-06 128L128 128Z" fill="url(#paint2_radial_12_32)"/>
<path d="M128 128L128 0L0 -5.59506e-06L-5.59506e-06 128L128 128Z" fill="url(#paint3_radial_12_32)"/>
<g filter="url(#filter0_f_12_32)">
<path d="M142.901 5.14232C153.094 -5.70643 170.282 -6.35806 181.291 3.687C192.299 13.7321 192.961 30.6713 182.768 41.5201L96.6198 137.833C87.6347 146.477 83.4579 147.775 74.4781 147.761C66.8962 147.749 57.4254 143.331 52.2919 137.833L10.6388 93.2145C0.481053 82.3337 1.19674 65.397 12.2375 55.3866C23.2785 45.3763 40.4646 46.0816 50.6224 56.9622L72.3474 80.2334L142.901 5.14232Z" fill="#1F0066" fill-opacity="0.21"/>
</g>
<g filter="url(#filter1_i_12_32)">
<path d="M141.866 -2.62569C151.259 -11.17 166.735 -17.8276 179.09 -6.47642C191.444 4.87472 188.075 20.4787 174.276 35.7212C160.478 50.9637 97.2616 126.374 97.2616 126.374C92.1357 131.992 81.8059 136.913 74.1572 137.284C66.5085 137.655 56.8289 134.557 45.9185 124.448C35.008 114.34 8.69469 85.4599 8.69469 85.4599C-1.41264 74.3113 -3.73546 57.4575 7.25058 47.2007C18.2368 36.944 32.7543 39.7474 42.3886 47.2007C52.023 54.654 58.7154 59.9463 64.049 64.1204C69.3826 68.2945 70.7339 68.7977 78.3288 61.5532C85.9238 54.3088 132.473 5.91863 141.866 -2.62569Z" fill="url(#paint4_linear_12_32)"/>
</g>
<path d="M148.926 -1.66303C157.429 -8.40182 166.774 -10.352 173.032 -5.699C179.289 -1.04603 180.855 9.56828 175.239 20.1578C169.623 30.7473 116.194 86.2621 104 102.307C91.8064 118.352 80.896 122.042 70.3065 121.561C59.7169 121.079 55.3849 118.191 45.2767 110.008C35.1685 101.825 26.0229 94.9263 13.8289 79.5233C1.63491 64.1204 5.80653 52.8891 11.1014 48.0756C16.3963 43.2622 27.467 41.9786 34.0452 45.6689C40.6234 49.3592 60.519 65.8853 64.0878 68.1068C67.6566 70.3283 71.9109 75.3269 78.3288 68.1068C84.7467 60.8866 140.422 5.07575 148.926 -1.66303Z" fill="url(#paint5_radial_12_32)"/>
<path d="M46.0309 76.5339C50.0526 75.9038 52.7968 72.0999 52.1603 68.0377C51.5238 63.9756 47.7476 61.1934 43.7259 61.8236C39.7043 62.4538 36.9601 66.2576 37.5966 70.3198C38.2331 74.3819 42.0093 77.1641 46.0309 76.5339Z" fill="#302D40"/>
<path d="M104.613 69.5651C108.604 68.9398 111.304 65.0216 110.645 60.8136C109.986 56.6057 106.216 53.7013 102.226 54.3266C98.235 54.9519 95.5345 58.87 96.1939 63.078C96.8532 67.286 100.623 70.1904 104.613 69.5651Z" fill="#302D40"/>
<path opacity="0.6" d="M30.2989 89.207C34.9531 88.4778 38.3141 85.1069 37.7064 81.2284C37.0987 77.3499 31.93 74.8827 27.2758 75.612C22.6217 76.3412 19.2322 79.3801 19.84 83.2586C20.4477 87.137 25.6447 89.9363 30.2989 89.207Z" fill="#F472B6"/>
<path opacity="0.6" d="M124.966 74.7056C129.62 73.9763 133.319 69.9995 132.711 66.1211C132.104 62.2426 128.247 59.6898 123.593 60.4191C118.939 61.1483 114.332 65.0273 114.939 68.9058C115.547 72.7843 120.312 75.4349 124.966 74.7056Z" fill="#F472B6"/>
<path d="M58.2684 85.6717C60.9933 93.8788 68.6476 101.459 78.3966 99.3921C88.1456 97.3249 91.3739 88.2844 91.9768 80.3898C92.5796 72.4953 88.2182 70.9822 84.2248 73.0469C80.2315 75.1116 76.2408 76.2459 73.4318 76.686C70.6229 77.1261 70.4263 77.4055 64.5882 76.8813C58.75 76.3571 55.5434 77.4647 58.2684 85.6717Z" fill="#2F2C3E"/>
<path opacity="0.81" d="M77.1513 96.7735C82.4629 95.9412 87.4133 91.3236 86.9168 88.1548C86.4857 85.4037 83.3705 82.7042 75.5936 83.9228C67.8167 85.1414 65.6947 88.7777 66.035 90.9496C66.7015 95.2028 71.8398 97.6057 77.1513 96.7735Z" fill="#F695D2"/>
<path opacity="0.6" d="M77.727 96.8455C80.731 96.3748 86.1578 92.9813 85.7937 90.6575C85.3742 87.9801 82.4595 86.4723 76.2539 87.4447C70.7614 88.3053 68.174 90.4411 68.5052 92.5548C69.1538 96.694 74.7229 97.3162 77.727 96.8455Z" fill="#FF9FDC"/>
</g>
</g>
<defs>
<filter id="filter0_f_12_32" x="0.665031" y="-6.24043" width="192.135" height="156.802" filterUnits="userSpaceOnUse" color-interpolation-filters="sRGB">
<feFlood flood-opacity="0" result="BackgroundImageFix"/>
<feBlend mode="normal" in="SourceGraphic" in2="BackgroundImageFix" result="shape"/>
<feGaussianBlur stdDeviation="1.4" result="effect1_foregroundBlur_12_32"/>
</filter>
<filter id="filter1_i_12_32" x="4.19617e-05" y="-15.5" width="186.728" height="152.814" filterUnits="userSpaceOnUse" color-interpolation-filters="sRGB">
<feFlood flood-opacity="0" result="BackgroundImageFix"/>
<feBlend mode="normal" in="SourceGraphic" in2="BackgroundImageFix" result="shape"/>
<feColorMatrix in="SourceAlpha" type="matrix" values="0 0 0 0 0 0 0 0 0 0 0 0 0 0 0 0 0 0 127 0" result="hardAlpha"/>
<feOffset dy="-3"/>
<feGaussianBlur stdDeviation="2.5"/>
<feComposite in2="hardAlpha" operator="arithmetic" k2="-1" k3="1"/>
<feColorMatrix type="matrix" values="0 0 0 0 0.34902 0 0 0 0 0.309804 0 0 0 0 0.858824 0 0 0 0.35 0"/>
<feBlend mode="normal" in2="shape" result="effect1_innerShadow_12_32"/>
</filter>
<radialGradient id="paint0_radial_12_32" cx="0" cy="0" r="1" gradientUnits="userSpaceOnUse" gradientTransform="translate(128 -20.5311) rotate(88.2439) scale(161.317)">
<stop stop-color="#4D6EF3"/>
<stop offset="1" stop-color="#9333EA" stop-opacity="0"/>
</radialGradient>
<radialGradient id="paint1_radial_12_32" cx="0" cy="0" r="1" gradientUnits="userSpaceOnUse" gradientTransform="translate(128 128) rotate(93.2778) scale(82.5758)">
<stop stop-color="#C3188D"/>
<stop offset="1" stop-color="#EC4899" stop-opacity="0"/>
</radialGradient>
<radialGradient id="paint2_radial_12_32" cx="0" cy="0" r="1" gradientUnits="userSpaceOnUse" gradientTransform="rotate(90) scale(120)">
<stop stop-color="#B26CFD"/>
<stop offset="1" stop-color="#7C3AED" stop-opacity="0"/>
</radialGradient>
<radialGradient id="paint3_radial_12_32" cx="0" cy="0" r="1" gradientUnits="userSpaceOnUse" gradientTransform="translate(-9.04465 117.246) rotate(61.5688) scale(107.413)">
<stop stop-color="#1DA98F"/>
<stop offset="1" stop-color="#0891B2" stop-opacity="0"/>
</radialGradient>
<linearGradient id="paint4_linear_12_32" x1="65.8139" y1="25.2922" x2="127.298" y2="111.509" gradientUnits="userSpaceOnUse">
<stop stop-color="#F9E2FF"/>
<stop offset="0.528846" stop-color="#F0E5FF"/>
<stop offset="1" stop-color="#D0D0E8"/>
</linearGradient>
<radialGradient id="paint5_radial_12_32" cx="0" cy="0" r="1" gradientUnits="userSpaceOnUse" gradientTransform="translate(70.6272 34.2772) rotate(80.647) scale(82.9306 83.3867)">
<stop stop-color="white"/>
<stop offset="1" stop-color="white" stop-opacity="0"/>
</radialGradient>
<clipPath id="clip0_12_32">
<rect width="128" height="128" fill="white"/>
</clipPath>
<clipPath id="clip1_12_32">
<rect width="128" height="128" fill="white"/>
</clipPath>
</defs>
</svg>
